<?xml version="1.0" encoding="iso-8859-1"?>
<!-- Generator: Adobe Illustrator 19.2.1, SVG Export Plug-In . SVG Version: 6.00 Build 0)  -->
<svg version="1.1" id="Layer_1" xmlns="http://www.w3.org/2000/svg" xmlns:xlink="http://www.w3.org/1999/xlink" x="0px" y="0px"
	 viewBox="0 0 240 240" style="enable-background:new 0 0 240 240;" xml:space="preserve">
<g>
	<path style="fill-rule:evenodd;clip-rule:evenodd;fill:#D6806D;" d="M95.338,217.998c-17.441,0-27.332-13.435-27.745-14.007
		c-0.491-0.681-0.756-1.499-0.756-2.339l-0.023-96.234l-18.111,13.436c-0.712,0.529-1.549,0.788-2.382,0.788
		c-1.055,0-2.103-0.416-2.883-1.226L6.598,80.153c-0.789-0.819-1.191-1.935-1.108-3.068s0.646-2.179,1.546-2.873
		c0.403-0.311,40.611-31.311,64.637-47.948c0.669-0.463,1.463-0.711,2.277-0.711h9.438c1.986,0,3.671,1.458,3.958,3.423
		c1.734,11.89,16.077,21.204,32.652,21.204c16.579,0,30.923-9.313,32.656-21.203c0.286-1.966,1.972-3.423,3.958-3.423h9.438
		c0.813,0,1.608,0.248,2.277,0.711c24.027,16.637,64.233,47.637,64.637,47.948c0.9,0.694,1.462,1.739,1.546,2.873
		s-0.319,2.25-1.107,3.068l-36.841,38.263c-0.78,0.81-1.828,1.226-2.883,1.226c-0.833,0-1.67-0.259-2.382-0.788l-18.111-13.436
		l-0.027,102.378c0,1.734-1.118,3.271-2.768,3.805c-0.406,0.131-0.821,0.194-1.231,0.194c-1.26,0-2.475-0.596-3.241-1.654
		c-0.311-0.422-7.983-10.635-21.339-10.635c-5.77,0-14.43,4.477-22.806,8.806C112.137,213.293,103.035,217.998,95.338,217.998z"/>
	<path style="fill:#1D1D1D;" d="M166.05,29.552c24.22,16.771,64.471,47.827,64.471,47.827l-36.841,38.263l-24.493-18.17
		l-0.029,110.324c0,0-8.895-12.29-24.579-12.29c-13.479,0-35.787,18.492-49.241,18.492c-15.595,0-24.5-12.347-24.5-12.347
		L70.813,97.472l-24.492,18.17L9.479,77.379c0,0,40.251-31.056,64.471-47.827h9.438c2.019,13.85,17.636,24.627,36.61,24.627
		c18.978,0,34.595-10.777,36.615-24.627H166.05 M166.05,21.552h-9.438c-3.973,0-7.343,2.915-7.916,6.846
		c-1.454,9.971-14.059,17.781-28.698,17.781c-14.636,0-27.24-7.81-28.694-17.781c-0.573-3.931-3.944-6.846-7.916-6.846H73.95
		c-1.628,0-3.216,0.496-4.554,1.423C45.286,39.67,4.997,70.733,4.592,71.045c-1.8,1.389-2.924,3.478-3.091,5.746
		c-0.167,2.268,0.638,4.499,2.215,6.137l36.841,38.263c1.559,1.62,3.656,2.451,5.766,2.451c1.665,0,3.339-0.518,4.764-1.575
		l11.729-8.702l0.021,88.288c0,1.679,0.529,3.316,1.512,4.678c0.461,0.64,11.524,15.667,30.989,15.667
		c8.669,0,18.191-4.922,28.272-10.133c7.58-3.918,16.172-8.359,20.969-8.359c11.019,0,17.61,8.343,18.115,9.004
		c1.516,2.155,3.935,3.349,6.462,3.349c0.811,0,1.634-0.123,2.441-0.377c3.332-1.048,5.56-4.192,5.561-7.685l0.025-94.434
		l11.731,8.703c1.425,1.057,3.099,1.575,4.764,1.575c2.11,0,4.206-0.832,5.766-2.451l36.841-38.263
		c1.577-1.638,2.383-3.869,2.215-6.137c-0.167-2.268-1.291-4.357-3.091-5.746c-0.404-0.312-40.693-31.375-64.803-48.07
		C169.266,22.048,167.678,21.552,166.05,21.552L166.05,21.552z"/>
</g>
<circle style="fill-rule:evenodd;clip-rule:evenodd;fill:#1D1D1D;" cx="120" cy="115.102" r="19.48"/>
<circle style="fill-rule:evenodd;clip-rule:evenodd;fill:none;stroke:#1D1D1D;stroke-width:8;stroke-miterlimit:10;" cx="120" cy="115.102" r="36.339"/>
<circle style="fill-rule:evenodd;clip-rule:evenodd;fill:#1D1D1D;" cx="144.227" cy="90.875" r="10.77"/>
<rect style="fill-rule:evenodd;clip-rule:evenodd;fill:none;" width="240" height="240"/>
</svg>
